<mxfile host="65bd71144e">
    <diagram id="bpkOkg_YQw8nwezcgyr8" name="Page-1">
        <mxGraphModel dx="2210" dy="2190" grid="1" gridSize="10" guides="1" tooltips="1" connect="1" arrows="1" fold="1" page="1" pageScale="1" pageWidth="850" pageHeight="1100" background="#FFFFFF" math="0" shadow="0">
            <root>
                <mxCell id="0"/>
                <mxCell id="1" parent="0"/>
                <mxCell id="202" value="&lt;font style=&quot;font-size: 24px;&quot; color=&quot;#000000&quot;&gt;Cloud service&lt;/font&gt;" style="rounded=0;whiteSpace=wrap;html=1;fillColor=#dae8fc;strokeColor=#6c8ebf;verticalAlign=bottom;align=left;" vertex="1" parent="1">
                    <mxGeometry x="-830" y="-30" width="2040" height="1440" as="geometry"/>
                </mxCell>
                <mxCell id="143" value="&lt;font color=&quot;#000000&quot;&gt;Node: Linux&lt;/font&gt;" style="rounded=0;whiteSpace=wrap;html=1;fillColor=#647687;fontColor=#ffffff;strokeColor=#000000;verticalAlign=bottom;align=left;" parent="1" vertex="1">
                    <mxGeometry x="927.0000000000001" y="884" width="235" height="195" as="geometry"/>
                </mxCell>
                <mxCell id="144" value="&lt;div style=&quot;&quot;&gt;&lt;font color=&quot;#000000&quot;&gt;Node: PostgreSQL&lt;/font&gt;&lt;/div&gt;" style="rounded=0;whiteSpace=wrap;html=1;fillColor=#647687;fontColor=#ffffff;strokeColor=#000000;align=left;verticalAlign=bottom;" parent="1" vertex="1">
                    <mxGeometry x="942.0000000000001" y="904" width="200" height="145" as="geometry"/>
                </mxCell>
                <mxCell id="137" value="&lt;font color=&quot;#000000&quot;&gt;Node: Linux&lt;/font&gt;" style="rounded=0;whiteSpace=wrap;html=1;fillColor=#647687;fontColor=#ffffff;strokeColor=#000000;verticalAlign=bottom;align=left;" parent="1" vertex="1">
                    <mxGeometry x="67.5" y="887" width="235" height="195" as="geometry"/>
                </mxCell>
                <mxCell id="138" value="&lt;div style=&quot;&quot;&gt;&lt;font color=&quot;#000000&quot;&gt;Node: MongoDB&lt;/font&gt;&lt;/div&gt;" style="rounded=0;whiteSpace=wrap;html=1;fillColor=#647687;fontColor=#ffffff;strokeColor=#000000;align=left;verticalAlign=bottom;" parent="1" vertex="1">
                    <mxGeometry x="82.5" y="907" width="200" height="145" as="geometry"/>
                </mxCell>
                <mxCell id="134" value="&lt;font color=&quot;#000000&quot;&gt;Node: Linux&lt;/font&gt;" style="rounded=0;whiteSpace=wrap;html=1;fillColor=#647687;fontColor=#ffffff;strokeColor=#000000;verticalAlign=bottom;align=left;" parent="1" vertex="1">
                    <mxGeometry x="-457.5" y="887" width="235" height="195" as="geometry"/>
                </mxCell>
                <mxCell id="135" value="&lt;div style=&quot;&quot;&gt;&lt;font color=&quot;#000000&quot;&gt;Node: MongoDB&lt;/font&gt;&lt;/div&gt;" style="rounded=0;whiteSpace=wrap;html=1;fillColor=#647687;fontColor=#ffffff;strokeColor=#000000;align=left;verticalAlign=bottom;" parent="1" vertex="1">
                    <mxGeometry x="-442.5" y="907" width="200" height="145" as="geometry"/>
                </mxCell>
                <mxCell id="136" value="&lt;font style=&quot;font-size: 12px;&quot;&gt;Master/slave + backup&lt;/font&gt;" style="rounded=0;whiteSpace=wrap;html=1;strokeColor=none;fontColor=#000000;labelBackgroundColor=none;fillColor=none;fontStyle=1;fontSize=14;verticalAlign=bottom;align=right;" parent="1" vertex="1">
                    <mxGeometry x="-370" y="1019" width="146.25" height="60" as="geometry"/>
                </mxCell>
                <mxCell id="122" value="&lt;font color=&quot;#000000&quot;&gt;Node:&amp;nbsp;&lt;/font&gt;&lt;span style=&quot;color: rgb(0, 0, 0);&quot;&gt;Kubernetes&lt;/span&gt;" style="rounded=0;whiteSpace=wrap;html=1;fillColor=#647687;fontColor=#ffffff;strokeColor=#000000;verticalAlign=bottom;align=left;" parent="1" vertex="1">
                    <mxGeometry x="-780" y="620" width="235" height="230" as="geometry"/>
                </mxCell>
                <mxCell id="123" value="&lt;div style=&quot;&quot;&gt;&lt;font color=&quot;#000000&quot;&gt;Node: Web server&lt;/font&gt;&lt;/div&gt;" style="rounded=0;whiteSpace=wrap;html=1;fillColor=#647687;fontColor=#ffffff;strokeColor=#000000;align=left;verticalAlign=bottom;" parent="1" vertex="1">
                    <mxGeometry x="-765" y="640" width="200" height="180" as="geometry"/>
                </mxCell>
                <mxCell id="119" value="&lt;font color=&quot;#000000&quot;&gt;Node:&amp;nbsp;&lt;/font&gt;&lt;span style=&quot;color: rgb(0, 0, 0);&quot;&gt;Kubernetes&lt;/span&gt;" style="rounded=0;whiteSpace=wrap;html=1;fillColor=#647687;fontColor=#ffffff;strokeColor=#000000;verticalAlign=bottom;align=left;" parent="1" vertex="1">
                    <mxGeometry x="910.0000000000001" y="620" width="235" height="230" as="geometry"/>
                </mxCell>
                <mxCell id="120" value="&lt;div style=&quot;&quot;&gt;&lt;font color=&quot;#000000&quot;&gt;Node: Web server&lt;/font&gt;&lt;/div&gt;" style="rounded=0;whiteSpace=wrap;html=1;fillColor=#647687;fontColor=#ffffff;strokeColor=#000000;align=left;verticalAlign=bottom;" parent="1" vertex="1">
                    <mxGeometry x="925.0000000000001" y="640" width="200" height="180" as="geometry"/>
                </mxCell>
                <mxCell id="108" value="&lt;font color=&quot;#000000&quot;&gt;Node: Kubernetes&lt;/font&gt;" style="rounded=0;whiteSpace=wrap;html=1;fillColor=#647687;fontColor=#ffffff;strokeColor=#000000;verticalAlign=bottom;align=left;" parent="1" vertex="1">
                    <mxGeometry x="-467.5" y="620" width="235" height="230" as="geometry"/>
                </mxCell>
                <mxCell id="109" value="&lt;div style=&quot;&quot;&gt;&lt;font color=&quot;#000000&quot;&gt;Node: Web server&lt;/font&gt;&lt;/div&gt;" style="rounded=0;whiteSpace=wrap;html=1;fillColor=#647687;fontColor=#ffffff;strokeColor=#000000;align=left;verticalAlign=bottom;" parent="1" vertex="1">
                    <mxGeometry x="-452.5" y="640" width="200" height="180" as="geometry"/>
                </mxCell>
                <mxCell id="105" value="&lt;font color=&quot;#000000&quot;&gt;Node:&amp;nbsp;&lt;/font&gt;&lt;span style=&quot;color: rgb(0, 0, 0);&quot;&gt;Kubernetes&lt;/span&gt;" style="rounded=0;whiteSpace=wrap;html=1;fillColor=#647687;fontColor=#ffffff;strokeColor=#000000;verticalAlign=bottom;align=left;" parent="1" vertex="1">
                    <mxGeometry x="-517.5" y="340" width="1170" height="180" as="geometry"/>
                </mxCell>
                <mxCell id="106" value="&lt;div style=&quot;&quot;&gt;&lt;font color=&quot;#000000&quot;&gt;Node: Web server&lt;/font&gt;&lt;/div&gt;" style="rounded=0;whiteSpace=wrap;html=1;fillColor=#647687;fontColor=#ffffff;strokeColor=#000000;align=left;verticalAlign=bottom;" parent="1" vertex="1">
                    <mxGeometry x="-487.5" y="360" width="1120" height="130" as="geometry"/>
                </mxCell>
                <mxCell id="103" value="&lt;font color=&quot;#000000&quot;&gt;Node: user's computer&lt;/font&gt;" style="rounded=0;whiteSpace=wrap;html=1;fillColor=#647687;fontColor=#ffffff;strokeColor=#000000;verticalAlign=bottom;align=left;" parent="1" vertex="1">
                    <mxGeometry x="377.5" width="235" height="270" as="geometry"/>
                </mxCell>
                <mxCell id="104" value="&lt;div style=&quot;&quot;&gt;&lt;font color=&quot;#000000&quot;&gt;Node: Web browser&lt;/font&gt;&lt;/div&gt;" style="rounded=0;whiteSpace=wrap;html=1;fillColor=#647687;fontColor=#ffffff;strokeColor=#000000;align=left;verticalAlign=bottom;" parent="1" vertex="1">
                    <mxGeometry x="392.5" y="20" width="200" height="219" as="geometry"/>
                </mxCell>
                <mxCell id="101" value="&lt;font color=&quot;#000000&quot;&gt;Node: user's computer&lt;/font&gt;" style="rounded=0;whiteSpace=wrap;html=1;fillColor=#647687;fontColor=#ffffff;strokeColor=#000000;verticalAlign=bottom;align=left;" parent="1" vertex="1">
                    <mxGeometry x="92.5" width="235" height="270" as="geometry"/>
                </mxCell>
                <mxCell id="102" value="&lt;div style=&quot;&quot;&gt;&lt;font color=&quot;#000000&quot;&gt;Node: Web browser&lt;/font&gt;&lt;/div&gt;" style="rounded=0;whiteSpace=wrap;html=1;fillColor=#647687;fontColor=#ffffff;strokeColor=#000000;align=left;verticalAlign=bottom;" parent="1" vertex="1">
                    <mxGeometry x="107.5" y="20" width="200" height="219" as="geometry"/>
                </mxCell>
                <mxCell id="99" value="&lt;font color=&quot;#000000&quot;&gt;Node: user's computer&lt;/font&gt;" style="rounded=0;whiteSpace=wrap;html=1;fillColor=#647687;fontColor=#ffffff;strokeColor=#000000;verticalAlign=bottom;align=left;" parent="1" vertex="1">
                    <mxGeometry x="-187.5" width="235" height="270" as="geometry"/>
                </mxCell>
                <mxCell id="100" value="&lt;div style=&quot;&quot;&gt;&lt;font color=&quot;#000000&quot;&gt;Node: Web browser&lt;/font&gt;&lt;/div&gt;" style="rounded=0;whiteSpace=wrap;html=1;fillColor=#647687;fontColor=#ffffff;strokeColor=#000000;align=left;verticalAlign=bottom;" parent="1" vertex="1">
                    <mxGeometry x="-172.5" y="20" width="200" height="219" as="geometry"/>
                </mxCell>
                <mxCell id="98" value="&lt;font color=&quot;#000000&quot;&gt;Node: user's computer&lt;/font&gt;" style="rounded=0;whiteSpace=wrap;html=1;fillColor=#647687;fontColor=#ffffff;strokeColor=#000000;verticalAlign=bottom;align=left;" parent="1" vertex="1">
                    <mxGeometry x="-467.5" width="235" height="270" as="geometry"/>
                </mxCell>
                <mxCell id="97" value="&lt;div style=&quot;&quot;&gt;&lt;font color=&quot;#000000&quot;&gt;Node: Web browser&lt;/font&gt;&lt;/div&gt;" style="rounded=0;whiteSpace=wrap;html=1;fillColor=#647687;fontColor=#ffffff;strokeColor=#000000;align=left;verticalAlign=bottom;" parent="1" vertex="1">
                    <mxGeometry x="-452.5" y="20" width="200" height="219" as="geometry"/>
                </mxCell>
                <mxCell id="4" value="&lt;b&gt;&lt;font style=&quot;font-size: 14px;&quot;&gt;Портал преподавателя&lt;/font&gt;&lt;/b&gt;&lt;br&gt;[Container: Single page Application]&lt;br&gt;&lt;br&gt;&lt;br&gt;&lt;span style=&quot;font-size: 10px;&quot;&gt;Браузерное приложение, позволяющее просматривать и изменять данные о студенческой успеваемости&lt;/span&gt;" style="whiteSpace=wrap;html=1;aspect=fixed;fillColor=#0050ef;fontColor=#ffffff;strokeColor=#001DBC;" parent="1" vertex="1">
                    <mxGeometry x="-155" y="37.5" width="170" height="170" as="geometry"/>
                </mxCell>
                <mxCell id="5" value="&lt;b&gt;&lt;font style=&quot;font-size: 14px;&quot;&gt;Портал родителя&lt;/font&gt;&lt;/b&gt;&lt;br&gt;[Container: Single page Application]&lt;br&gt;&lt;br&gt;&lt;br&gt;&lt;span style=&quot;font-size: 10px;&quot;&gt;Браузерное приложение, позволяющее просматривать&amp;nbsp; данные о студенческой успеваемости&lt;/span&gt;" style="whiteSpace=wrap;html=1;aspect=fixed;fillColor=#0050ef;fontColor=#ffffff;strokeColor=#001DBC;" parent="1" vertex="1">
                    <mxGeometry x="123.25" y="37.5" width="170" height="170" as="geometry"/>
                </mxCell>
                <mxCell id="6" value="&lt;b style=&quot;font-size: 14px;&quot;&gt;Портал общения&lt;/b&gt;&lt;span style=&quot;font-size: 14px;&quot;&gt;&lt;b&gt;&lt;br&gt;&lt;/b&gt;&lt;/span&gt;[Container:Single page Application]&lt;br&gt;&lt;br&gt;&lt;br&gt;&lt;span style=&quot;font-size: 10px;&quot;&gt;Браузерное приложение, позволяющее родителям и преподавателям общаться между собой&lt;/span&gt;" style="whiteSpace=wrap;html=1;aspect=fixed;fillColor=#0050ef;fontColor=#ffffff;strokeColor=#001DBC;" parent="1" vertex="1">
                    <mxGeometry x="406.5" y="37.5" width="170" height="170" as="geometry"/>
                </mxCell>
                <mxCell id="8" value="&lt;font style=&quot;font-size: 14px;&quot;&gt;&lt;b&gt;API Gateway&lt;br&gt;&lt;/b&gt;&lt;/font&gt;[Container: Service]&lt;br&gt;&lt;br&gt;Сервис, отвечающий за контроль доступа и роутинг" style="rounded=0;whiteSpace=wrap;html=1;fillColor=#0050ef;fontColor=#ffffff;strokeColor=#001DBC;" parent="1" vertex="1">
                    <mxGeometry x="-467.5" y="378" width="1080" height="82" as="geometry"/>
                </mxCell>
                <mxCell id="10" value="" style="endArrow=classic;html=1;fontSize=10;strokeColor=#000000;exitX=0.5;exitY=1;exitDx=0;exitDy=0;" parent="1" source="4" edge="1">
                    <mxGeometry width="50" height="50" relative="1" as="geometry">
                        <mxPoint x="40.5" y="300" as="sourcePoint"/>
                        <mxPoint x="-69.5" y="370" as="targetPoint"/>
                    </mxGeometry>
                </mxCell>
                <mxCell id="11" value="API calls to&lt;br&gt;[REST/HTTPS]&amp;nbsp;" style="edgeLabel;html=1;align=center;verticalAlign=middle;resizable=0;points=[];fontSize=12;fontColor=#FFFFFF;labelBackgroundColor=#333333;" parent="10" vertex="1" connectable="0">
                    <mxGeometry x="-0.3001" relative="1" as="geometry">
                        <mxPoint x="1" y="34" as="offset"/>
                    </mxGeometry>
                </mxCell>
                <mxCell id="15" value="" style="endArrow=classic;html=1;fontSize=10;strokeColor=#000000;exitX=0.5;exitY=1;exitDx=0;exitDy=0;" parent="1" source="5" edge="1">
                    <mxGeometry width="50" height="50" relative="1" as="geometry">
                        <mxPoint x="227.5" y="330" as="sourcePoint"/>
                        <mxPoint x="208.5" y="370" as="targetPoint"/>
                    </mxGeometry>
                </mxCell>
                <mxCell id="16" value="API calls to&lt;br&gt;[REST/HTTPS]&amp;nbsp;" style="edgeLabel;html=1;align=center;verticalAlign=middle;resizable=0;points=[];fontSize=12;fontColor=#FFFFFF;labelBackgroundColor=#333333;" parent="15" vertex="1" connectable="0">
                    <mxGeometry x="-0.3001" relative="1" as="geometry">
                        <mxPoint x="1" y="34" as="offset"/>
                    </mxGeometry>
                </mxCell>
                <mxCell id="17" value="" style="endArrow=classic;html=1;fontSize=10;strokeColor=#000000;exitX=0.5;exitY=1;exitDx=0;exitDy=0;" parent="1" source="6" edge="1">
                    <mxGeometry width="50" height="50" relative="1" as="geometry">
                        <mxPoint x="60.5" y="320" as="sourcePoint"/>
                        <mxPoint x="491.5" y="370" as="targetPoint"/>
                    </mxGeometry>
                </mxCell>
                <mxCell id="18" value="API calls to&lt;br&gt;[REST/HTTPS]&amp;nbsp;" style="edgeLabel;html=1;align=center;verticalAlign=middle;resizable=0;points=[];fontSize=12;fontColor=#FFFFFF;labelBackgroundColor=#333333;" parent="17" vertex="1" connectable="0">
                    <mxGeometry x="-0.3001" relative="1" as="geometry">
                        <mxPoint x="1" y="34" as="offset"/>
                    </mxGeometry>
                </mxCell>
                <mxCell id="20" value="&lt;b style=&quot;font-size: 14px;&quot;&gt;Сервис отчетов&lt;br&gt;&lt;/b&gt;[Container: Service]&lt;br&gt;&lt;br&gt;- Генерация отчетов" style="rounded=0;whiteSpace=wrap;html=1;fillColor=#0050ef;fontColor=#ffffff;strokeColor=#001DBC;" parent="1" vertex="1">
                    <mxGeometry x="-437.5" y="658" width="170" height="130" as="geometry"/>
                </mxCell>
                <mxCell id="28" value="&lt;b&gt;&lt;font style=&quot;font-size: 14px;&quot;&gt;Портал отчетов&amp;nbsp;&lt;/font&gt;&lt;/b&gt;&lt;br&gt;[Container: Single page Application]&lt;br&gt;&lt;br&gt;&lt;br&gt;&lt;span style=&quot;font-size: 10px;&quot;&gt;Браузерное приложение, позволяющее конфигурировать, запрашивать и просматривать отчеты&lt;/span&gt;" style="whiteSpace=wrap;html=1;aspect=fixed;fillColor=#0050ef;fontColor=#ffffff;strokeColor=#001DBC;" parent="1" vertex="1">
                    <mxGeometry x="-437.5" y="36" width="170" height="170" as="geometry"/>
                </mxCell>
                <mxCell id="29" value="БД отчетов" style="shape=cylinder3;whiteSpace=wrap;html=1;boundedLbl=1;backgroundOutline=1;size=15;fontSize=14;fillColor=#1ba1e2;fontColor=#ffffff;strokeColor=#006EAF;" parent="1" vertex="1">
                    <mxGeometry x="-407.5" y="922" width="115" height="100" as="geometry"/>
                </mxCell>
                <mxCell id="30" value="БД пользователей&lt;span style=&quot;color: rgba(0, 0, 0, 0); font-family: monospace; font-size: 0px; text-align: start;&quot;&gt;%3CmxGraphModel%3E%3Croot%3E%3CmxCell%20id%3D%220%22%2F%3E%3CmxCell%20id%3D%221%22%20parent%3D%220%22%2F%3E%3CmxCell%20id%3D%222%22%20value%3D%22%D0%91%D0%94%20%D0%B3%D0%BE%D1%82%D0%BE%D0%B2%D1%8B%D1%85%20%D0%BE%D1%82%D1%87%D0%B5%D1%82%D0%BE%D0%B2%22%20style%3D%22shape%3Dcylinder3%3BwhiteSpace%3Dwrap%3Bhtml%3D1%3BboundedLbl%3D1%3BbackgroundOutline%3D1%3Bsize%3D15%3BfontSize%3D14%3BfillColor%3D%230050ef%3BfontColor%3D%23ffffff%3BstrokeColor%3D%23001DBC%3B%22%20vertex%3D%221%22%20parent%3D%221%22%3E%3CmxGeometry%20x%3D%2215%22%20y%3D%22770%22%20width%3D%22115%22%20height%3D%22160%22%20as%3D%22geometry%22%2F%3E%3C%2FmxCell%3E%3C%2Froot%3E%3C%2FmxGraphModel%3E&lt;/span&gt;" style="shape=cylinder3;whiteSpace=wrap;html=1;boundedLbl=1;backgroundOutline=1;size=15;fontSize=14;fillColor=#1ba1e2;fontColor=#ffffff;strokeColor=#006EAF;" parent="1" vertex="1">
                    <mxGeometry x="969.5000000000001" y="919" width="115" height="100" as="geometry"/>
                </mxCell>
                <mxCell id="31" value="БД занятий&lt;span style=&quot;color: rgba(0, 0, 0, 0); font-family: monospace; font-size: 0px; text-align: start;&quot;&gt;%3CmxGraphModel%3E%3Croot%3E%3CmxCell%20id%3D%220%22%2F%3E%3CmxCell%20id%3D%221%22%20parent%3D%220%22%2F%3E%3CmxCell%20id%3D%222%22%20value%3D%22%D0%91%D0%94%20%D0%B3%D0%BE%D1%82%D0%BE%D0%B2%D1%8B%D1%85%20%D0%BE%D1%82%D1%87%D0%B5%D1%82%D0%BE%D0%B2%22%20style%3D%22shape%3Dcylinder3%3BwhiteSpace%3Dwrap%3Bhtml%3D1%3BboundedLbl%3D1%3BbackgroundOutline%3D1%3Bsize%3D15%3BfontSize%3D14%3BfillColor%3D%230050ef%3BfontColor%3D%23ffffff%3BstrokeColor%3D%23001DBC%3B%22%20vertex%3D%221%22%20parent%3D%221%22%3E%3CmxGeometry%20x%3D%2215%22%20y%3D%22770%22%20width%3D%22115%22%20height%3D%22160%22%20as%3D%22geometry%22%2F%3E%3C%2FmxCell%3E%3C%2Froot%3E%3C%2FmxGraphModel%3E&lt;/span&gt;" style="shape=cylinder3;whiteSpace=wrap;html=1;boundedLbl=1;backgroundOutline=1;size=15;fontSize=14;fillColor=#1ba1e2;fontColor=#ffffff;strokeColor=#006EAF;" parent="1" vertex="1">
                    <mxGeometry x="110" y="922" width="115" height="100" as="geometry"/>
                </mxCell>
                <mxCell id="45" value="&lt;b style=&quot;font-size: 14px;&quot;&gt;Сервис уведомлений&lt;br&gt;&lt;/b&gt;[Container: Service]&lt;br&gt;&lt;br&gt;- Направляет уведомления по электронной почте&amp;nbsp;" style="rounded=0;whiteSpace=wrap;html=1;fillColor=#0050ef;fontColor=#ffffff;strokeColor=#001DBC;" parent="1" vertex="1">
                    <mxGeometry x="-747.5" y="655" width="170" height="130" as="geometry"/>
                </mxCell>
                <mxCell id="59" value="" style="endArrow=classic;html=1;fontSize=10;exitX=0;exitY=0.5;exitDx=0;exitDy=0;entryX=0.5;entryY=1;entryDx=0;entryDy=0;rounded=1;dashed=1;strokeColor=#000000;" parent="1" source="181" target="45" edge="1">
                    <mxGeometry width="50" height="50" relative="1" as="geometry">
                        <mxPoint x="-731.25" y="970" as="sourcePoint"/>
                        <mxPoint x="-336.25" y="812" as="targetPoint"/>
                        <Array as="points">
                            <mxPoint x="-662" y="1246"/>
                        </Array>
                    </mxGeometry>
                </mxCell>
                <mxCell id="191" value="Reads from" style="edgeLabel;html=1;align=center;verticalAlign=middle;resizable=0;points=[];" parent="59" vertex="1" connectable="0">
                    <mxGeometry x="0.514" y="-5" relative="1" as="geometry">
                        <mxPoint as="offset"/>
                    </mxGeometry>
                </mxCell>
                <mxCell id="70" value="&lt;b style=&quot;font-size: 14px;&quot;&gt;Сервис управление пользователями&lt;br&gt;&lt;/b&gt;[Container: Service]&lt;br&gt;&lt;br&gt;- Регистрация новых пользователей&lt;br&gt;- Выдача ролей и прав" style="rounded=0;whiteSpace=wrap;html=1;fillColor=#0050ef;fontColor=#ffffff;strokeColor=#001DBC;" parent="1" vertex="1">
                    <mxGeometry x="936.5000000000001" y="658" width="175" height="130" as="geometry"/>
                </mxCell>
                <mxCell id="77" value="" style="endArrow=classic;html=1;fontSize=10;entryX=0.5;entryY=0;entryDx=0;entryDy=0;strokeColor=#000000;exitX=0;exitY=0;exitDx=0;exitDy=0;entryPerimeter=0;" parent="1" target="30" edge="1">
                    <mxGeometry width="50" height="50" relative="1" as="geometry">
                        <mxPoint x="1025" y="788" as="sourcePoint"/>
                        <mxPoint x="795.0000000000001" y="988" as="targetPoint"/>
                    </mxGeometry>
                </mxCell>
                <mxCell id="91" value="" style="endArrow=classic;html=1;fontSize=10;strokeColor=#000000;exitX=0.5;exitY=1;exitDx=0;exitDy=0;entryX=0.107;entryY=-0.023;entryDx=0;entryDy=0;entryPerimeter=0;" parent="1" source="28" target="8" edge="1">
                    <mxGeometry width="50" height="50" relative="1" as="geometry">
                        <mxPoint x="50.5" y="310" as="sourcePoint"/>
                        <mxPoint x="-352.5" y="370" as="targetPoint"/>
                    </mxGeometry>
                </mxCell>
                <mxCell id="92" value="API calls to&lt;br&gt;[REST/HTTPS]&amp;nbsp;" style="edgeLabel;html=1;align=center;verticalAlign=middle;resizable=0;points=[];fontSize=12;fontColor=#FFFFFF;labelBackgroundColor=#333333;" parent="91" vertex="1" connectable="0">
                    <mxGeometry x="-0.3001" relative="1" as="geometry">
                        <mxPoint x="2" y="34" as="offset"/>
                    </mxGeometry>
                </mxCell>
                <mxCell id="107" value="&lt;font style=&quot;font-size: 16px;&quot;&gt;x3&lt;/font&gt;" style="rounded=0;whiteSpace=wrap;html=1;strokeColor=none;fontColor=#000000;labelBackgroundColor=none;fillColor=none;fontStyle=1;fontSize=14;verticalAlign=bottom;align=right;" parent="1" vertex="1">
                    <mxGeometry x="400" y="460" width="251.5" height="60" as="geometry"/>
                </mxCell>
                <mxCell id="129" value="Reads from" style="endArrow=classic;html=1;fontSize=10;entryX=0.692;entryY=-0.031;entryDx=0;entryDy=0;strokeColor=#000000;exitX=0.75;exitY=1;exitDx=0;exitDy=0;entryPerimeter=0;" parent="1" target="29" edge="1">
                    <mxGeometry x="0.253" y="-2" width="50" height="50" relative="1" as="geometry">
                        <mxPoint x="-327.375" y="788" as="sourcePoint"/>
                        <mxPoint x="-327.5" y="1210" as="targetPoint"/>
                        <mxPoint as="offset"/>
                    </mxGeometry>
                </mxCell>
                <mxCell id="151" value="&lt;font color=&quot;#000000&quot;&gt;Node: Linux&lt;/font&gt;" style="rounded=0;whiteSpace=wrap;html=1;fillColor=#647687;fontColor=#ffffff;strokeColor=#000000;verticalAlign=bottom;align=left;" parent="1" vertex="1">
                    <mxGeometry x="-190" y="887" width="235" height="195" as="geometry"/>
                </mxCell>
                <mxCell id="152" value="&lt;div style=&quot;&quot;&gt;&lt;font color=&quot;#000000&quot;&gt;Node: EventStoreDB&lt;/font&gt;&lt;/div&gt;" style="rounded=0;whiteSpace=wrap;html=1;fillColor=#647687;fontColor=#ffffff;strokeColor=#000000;align=left;verticalAlign=bottom;" parent="1" vertex="1">
                    <mxGeometry x="-175" y="907" width="200" height="145" as="geometry"/>
                </mxCell>
                <mxCell id="154" value="EventStore" style="shape=cylinder3;whiteSpace=wrap;html=1;boundedLbl=1;backgroundOutline=1;size=15;fontSize=14;fillColor=#1ba1e2;fontColor=#ffffff;strokeColor=#006EAF;" parent="1" vertex="1">
                    <mxGeometry x="-140" y="922" width="115" height="100" as="geometry"/>
                </mxCell>
                <mxCell id="155" value="&lt;font color=&quot;#000000&quot;&gt;Node:&amp;nbsp;&lt;/font&gt;&lt;span style=&quot;color: rgb(0, 0, 0);&quot;&gt;Kubernetes&lt;/span&gt;" style="rounded=0;whiteSpace=wrap;html=1;fillColor=#647687;fontColor=#ffffff;strokeColor=#000000;verticalAlign=bottom;align=left;" parent="1" vertex="1">
                    <mxGeometry x="-62.5" y="620" width="235" height="230" as="geometry"/>
                </mxCell>
                <mxCell id="156" value="&lt;div style=&quot;&quot;&gt;&lt;font color=&quot;#000000&quot;&gt;Node: Web server&lt;/font&gt;&lt;/div&gt;" style="rounded=0;whiteSpace=wrap;html=1;fillColor=#647687;fontColor=#ffffff;strokeColor=#000000;align=left;verticalAlign=bottom;" parent="1" vertex="1">
                    <mxGeometry x="-47.5" y="640" width="200" height="180" as="geometry"/>
                </mxCell>
                <mxCell id="158" value="&lt;b style=&quot;font-size: 14px;&quot;&gt;Сервис занятий&lt;br&gt;&lt;/b&gt;[Container: Service]&lt;br&gt;&lt;br&gt;- Управление данными об посещаемости" style="rounded=0;whiteSpace=wrap;html=1;fillColor=#0050ef;fontColor=#ffffff;strokeColor=#001DBC;" parent="1" vertex="1">
                    <mxGeometry x="-28.5" y="658" width="167" height="130" as="geometry"/>
                </mxCell>
                <mxCell id="68" value="" style="endArrow=classic;html=1;fontSize=10;strokeColor=#000000;entryX=0.5;entryY=0;entryDx=0;entryDy=0;entryPerimeter=0;startArrow=classic;startFill=1;exitX=0.75;exitY=1;exitDx=0;exitDy=0;" parent="1" source="158" target="31" edge="1">
                    <mxGeometry width="50" height="50" relative="1" as="geometry">
                        <mxPoint x="77.5" y="768" as="sourcePoint"/>
                        <mxPoint x="380.5" y="438" as="targetPoint"/>
                    </mxGeometry>
                </mxCell>
                <mxCell id="69" value="Reads from and writes to" style="edgeLabel;html=1;align=center;verticalAlign=middle;resizable=0;points=[];fontSize=12;fontColor=#FFFFFF;labelBackgroundColor=#333333;" parent="68" vertex="1" connectable="0">
                    <mxGeometry x="-0.3001" relative="1" as="geometry">
                        <mxPoint x="38" y="36" as="offset"/>
                    </mxGeometry>
                </mxCell>
                <mxCell id="159" value="" style="endArrow=classic;html=1;fontSize=10;entryX=0.5;entryY=0;entryDx=0;entryDy=0;strokeColor=#000000;exitX=0.25;exitY=1;exitDx=0;exitDy=0;entryPerimeter=0;" parent="1" source="158" target="154" edge="1">
                    <mxGeometry width="50" height="50" relative="1" as="geometry">
                        <mxPoint x="-215.64499999999998" y="640" as="sourcePoint"/>
                        <mxPoint x="-215.76999999999998" y="1042" as="targetPoint"/>
                    </mxGeometry>
                </mxCell>
                <mxCell id="163" value="Writes to" style="edgeLabel;html=1;align=center;verticalAlign=middle;resizable=0;points=[];" parent="159" vertex="1" connectable="0">
                    <mxGeometry x="0.2403" y="2" relative="1" as="geometry">
                        <mxPoint as="offset"/>
                    </mxGeometry>
                </mxCell>
                <mxCell id="164" value="&lt;font color=&quot;#000000&quot;&gt;Node: Linux&lt;/font&gt;" style="rounded=0;whiteSpace=wrap;html=1;fillColor=#647687;fontColor=#ffffff;strokeColor=#000000;verticalAlign=bottom;align=left;" parent="1" vertex="1">
                    <mxGeometry x="625" y="887" width="235" height="195" as="geometry"/>
                </mxCell>
                <mxCell id="165" value="&lt;div style=&quot;&quot;&gt;&lt;font color=&quot;#000000&quot;&gt;Node: MongoDB&lt;/font&gt;&lt;/div&gt;" style="rounded=0;whiteSpace=wrap;html=1;fillColor=#647687;fontColor=#ffffff;strokeColor=#000000;align=left;verticalAlign=bottom;" parent="1" vertex="1">
                    <mxGeometry x="640" y="907" width="200" height="145" as="geometry"/>
                </mxCell>
                <mxCell id="167" value="БД заданий&lt;span style=&quot;color: rgba(0, 0, 0, 0); font-family: monospace; font-size: 0px; text-align: start;&quot;&gt;%3CmxGraphModel%3E%3Croot%3E%3CmxCell%20id%3D%220%22%2F%3E%3CmxCell%20id%3D%221%22%20parent%3D%220%22%2F%3E%3CmxCell%20id%3D%222%22%20value%3D%22%D0%91%D0%94%20%D0%B3%D0%BE%D1%82%D0%BE%D0%B2%D1%8B%D1%85%20%D0%BE%D1%82%D1%87%D0%B5%D1%82%D0%BE%D0%B2%22%20style%3D%22shape%3Dcylinder3%3BwhiteSpace%3Dwrap%3Bhtml%3D1%3BboundedLbl%3D1%3BbackgroundOutline%3D1%3Bsize%3D15%3BfontSize%3D14%3BfillColor%3D%230050ef%3BfontColor%3D%23ffffff%3BstrokeColor%3D%23001DBC%3B%22%20vertex%3D%221%22%20parent%3D%221%22%3E%3CmxGeometry%20x%3D%2215%22%20y%3D%22770%22%20width%3D%22115%22%20height%3D%22160%22%20as%3D%22geometry%22%2F%3E%3C%2FmxCell%3E%3C%2Froot%3E%3C%2FmxGraphModel%3E&lt;/span&gt;" style="shape=cylinder3;whiteSpace=wrap;html=1;boundedLbl=1;backgroundOutline=1;size=15;fontSize=14;fillColor=#1ba1e2;fontColor=#ffffff;strokeColor=#006EAF;" parent="1" vertex="1">
                    <mxGeometry x="667.5" y="922" width="115" height="100" as="geometry"/>
                </mxCell>
                <mxCell id="168" value="&lt;font color=&quot;#000000&quot;&gt;Node: Linux&lt;/font&gt;" style="rounded=0;whiteSpace=wrap;html=1;fillColor=#647687;fontColor=#ffffff;strokeColor=#000000;verticalAlign=bottom;align=left;" parent="1" vertex="1">
                    <mxGeometry x="367.5" y="887" width="235" height="195" as="geometry"/>
                </mxCell>
                <mxCell id="169" value="&lt;div style=&quot;&quot;&gt;&lt;font color=&quot;#000000&quot;&gt;Node: EventStoreDB&lt;/font&gt;&lt;/div&gt;" style="rounded=0;whiteSpace=wrap;html=1;fillColor=#647687;fontColor=#ffffff;strokeColor=#000000;align=left;verticalAlign=bottom;" parent="1" vertex="1">
                    <mxGeometry x="382.5" y="907" width="200" height="145" as="geometry"/>
                </mxCell>
                <mxCell id="171" value="EventStore" style="shape=cylinder3;whiteSpace=wrap;html=1;boundedLbl=1;backgroundOutline=1;size=15;fontSize=14;fillColor=#1ba1e2;fontColor=#ffffff;strokeColor=#006EAF;" parent="1" vertex="1">
                    <mxGeometry x="417.5" y="922" width="115" height="100" as="geometry"/>
                </mxCell>
                <mxCell id="172" value="&lt;font color=&quot;#000000&quot;&gt;Node:&amp;nbsp;&lt;/font&gt;&lt;span style=&quot;color: rgb(0, 0, 0);&quot;&gt;Kubernetes&lt;/span&gt;" style="rounded=0;whiteSpace=wrap;html=1;fillColor=#647687;fontColor=#ffffff;strokeColor=#000000;verticalAlign=bottom;align=left;" parent="1" vertex="1">
                    <mxGeometry x="495" y="620" width="235" height="230" as="geometry"/>
                </mxCell>
                <mxCell id="173" value="&lt;div style=&quot;&quot;&gt;&lt;font color=&quot;#000000&quot;&gt;Node: Web server&lt;/font&gt;&lt;/div&gt;" style="rounded=0;whiteSpace=wrap;html=1;fillColor=#647687;fontColor=#ffffff;strokeColor=#000000;align=left;verticalAlign=bottom;" parent="1" vertex="1">
                    <mxGeometry x="510" y="640" width="200" height="180" as="geometry"/>
                </mxCell>
                <mxCell id="175" value="&lt;b style=&quot;font-size: 14px;&quot;&gt;Сервис заданий&lt;br&gt;&lt;/b&gt;[Container: Service]&lt;br&gt;&lt;br&gt;- Управление данными о заданиях" style="rounded=0;whiteSpace=wrap;html=1;fillColor=#0050ef;fontColor=#ffffff;strokeColor=#001DBC;" parent="1" vertex="1">
                    <mxGeometry x="529" y="658" width="167" height="130" as="geometry"/>
                </mxCell>
                <mxCell id="176" value="" style="endArrow=classic;html=1;fontSize=10;strokeColor=#000000;entryX=0.5;entryY=0;entryDx=0;entryDy=0;entryPerimeter=0;startArrow=classic;startFill=1;exitX=0.75;exitY=1;exitDx=0;exitDy=0;" parent="1" source="175" target="167" edge="1">
                    <mxGeometry width="50" height="50" relative="1" as="geometry">
                        <mxPoint x="635" y="768" as="sourcePoint"/>
                        <mxPoint x="938" y="438" as="targetPoint"/>
                    </mxGeometry>
                </mxCell>
                <mxCell id="177" value="Reads from and writes to" style="edgeLabel;html=1;align=center;verticalAlign=middle;resizable=0;points=[];fontSize=12;fontColor=#FFFFFF;labelBackgroundColor=#333333;" parent="176" vertex="1" connectable="0">
                    <mxGeometry x="-0.3001" relative="1" as="geometry">
                        <mxPoint x="38" y="36" as="offset"/>
                    </mxGeometry>
                </mxCell>
                <mxCell id="178" value="" style="endArrow=classic;html=1;fontSize=10;entryX=0.5;entryY=0;entryDx=0;entryDy=0;strokeColor=#000000;exitX=0.25;exitY=1;exitDx=0;exitDy=0;entryPerimeter=0;" parent="1" source="175" target="171" edge="1">
                    <mxGeometry width="50" height="50" relative="1" as="geometry">
                        <mxPoint x="341.855" y="640" as="sourcePoint"/>
                        <mxPoint x="341.73" y="1042" as="targetPoint"/>
                    </mxGeometry>
                </mxCell>
                <mxCell id="179" value="Writes to" style="edgeLabel;html=1;align=center;verticalAlign=middle;resizable=0;points=[];" parent="178" vertex="1" connectable="0">
                    <mxGeometry x="0.2403" y="2" relative="1" as="geometry">
                        <mxPoint as="offset"/>
                    </mxGeometry>
                </mxCell>
                <mxCell id="181" value="&lt;font color=&quot;#000000&quot;&gt;Node:&amp;nbsp;&lt;/font&gt;&lt;span style=&quot;color: rgb(0, 0, 0);&quot;&gt;Kubernetes&lt;/span&gt;" style="rounded=0;whiteSpace=wrap;html=1;fillColor=#647687;fontColor=#ffffff;strokeColor=#000000;verticalAlign=bottom;align=left;" parent="1" vertex="1">
                    <mxGeometry x="-460" y="1160.67" width="1330" height="170" as="geometry"/>
                </mxCell>
                <mxCell id="182" value="&lt;div style=&quot;&quot;&gt;&lt;font color=&quot;#000000&quot;&gt;Node: RabbitMQ&lt;/font&gt;&lt;/div&gt;" style="rounded=0;whiteSpace=wrap;html=1;fillColor=#647687;fontColor=#ffffff;strokeColor=#000000;align=left;verticalAlign=bottom;" parent="1" vertex="1">
                    <mxGeometry x="-445" y="1180" width="1295" height="120.67" as="geometry"/>
                </mxCell>
                <mxCell id="183" value="Очередь интеграционных событий&lt;br&gt;&lt;span style=&quot;font-size: 12px;&quot;&gt;[Container: Queue]&lt;/span&gt;" style="rounded=1;whiteSpace=wrap;html=1;labelBackgroundColor=#;fontSize=14;fontColor=#ffffff;fillColor=#60a917;strokeColor=#2D7600;" parent="1" vertex="1">
                    <mxGeometry x="-428.75" y="1210.67" width="1248.75" height="60" as="geometry"/>
                </mxCell>
                <mxCell id="185" value="&lt;font style=&quot;font-size: 16px;&quot;&gt;x2&lt;/font&gt;" style="rounded=0;whiteSpace=wrap;html=1;strokeColor=none;fontColor=#000000;labelBackgroundColor=none;fillColor=none;fontStyle=1;fontSize=14;verticalAlign=bottom;align=right;" parent="1" vertex="1">
                    <mxGeometry x="710" y="1270.67" width="160" height="60" as="geometry"/>
                </mxCell>
                <mxCell id="186" value="Reads from and&lt;br&gt;writes to" style="endArrow=classic;html=1;fontSize=10;exitX=1;exitY=0.5;exitDx=0;exitDy=0;rounded=1;dashed=1;strokeColor=#000000;startArrow=classic;startFill=1;" parent="1" source="108" edge="1">
                    <mxGeometry x="-0.3989" y="10" width="50" height="50" relative="1" as="geometry">
                        <mxPoint x="-578.75" y="1266" as="sourcePoint"/>
                        <mxPoint x="-200" y="1160" as="targetPoint"/>
                        <Array as="points">
                            <mxPoint x="-200" y="735"/>
                        </Array>
                        <mxPoint y="1" as="offset"/>
                    </mxGeometry>
                </mxCell>
                <mxCell id="187" value="Writes to" style="endArrow=classic;html=1;fontSize=10;exitX=0.994;exitY=0.306;exitDx=0;exitDy=0;rounded=1;dashed=1;strokeColor=#000000;exitPerimeter=0;" parent="1" source="155" edge="1">
                    <mxGeometry width="50" height="50" relative="1" as="geometry">
                        <mxPoint x="302.5" y="690" as="sourcePoint"/>
                        <mxPoint x="310" y="1160" as="targetPoint"/>
                        <Array as="points">
                            <mxPoint x="310" y="690"/>
                        </Array>
                    </mxGeometry>
                </mxCell>
                <mxCell id="188" value="" style="endArrow=classic;html=1;fontSize=10;exitX=0.006;exitY=0.335;exitDx=0;exitDy=0;rounded=1;dashed=1;strokeColor=#000000;exitPerimeter=0;" parent="1" source="172" edge="1">
                    <mxGeometry width="50" height="50" relative="1" as="geometry">
                        <mxPoint x="181.09000000000015" y="700.3800000000001" as="sourcePoint"/>
                        <mxPoint x="350" y="1160" as="targetPoint"/>
                        <Array as="points">
                            <mxPoint x="350" y="697"/>
                        </Array>
                    </mxGeometry>
                </mxCell>
                <mxCell id="190" value="Writes to" style="edgeLabel;html=1;align=center;verticalAlign=middle;resizable=0;points=[];" parent="188" vertex="1" connectable="0">
                    <mxGeometry x="-0.0734" y="2" relative="1" as="geometry">
                        <mxPoint as="offset"/>
                    </mxGeometry>
                </mxCell>
                <mxCell id="26" value="" style="endArrow=classic;html=1;fontSize=10;strokeColor=#000000;exitX=0.105;exitY=1.031;exitDx=0;exitDy=0;exitPerimeter=0;" parent="1" source="8" edge="1">
                    <mxGeometry width="50" height="50" relative="1" as="geometry">
                        <mxPoint x="-177.5" y="460" as="sourcePoint"/>
                        <mxPoint x="-354" y="660" as="targetPoint"/>
                    </mxGeometry>
                </mxCell>
                <mxCell id="27" value="API calls to&lt;br&gt;[REST/HTTPS]&amp;nbsp;" style="edgeLabel;html=1;align=center;verticalAlign=middle;resizable=0;points=[];fontSize=12;fontColor=#FFFFFF;labelBackgroundColor=#333333;" parent="26" vertex="1" connectable="0">
                    <mxGeometry x="-0.3001" relative="1" as="geometry">
                        <mxPoint x="3" y="30" as="offset"/>
                    </mxGeometry>
                </mxCell>
                <mxCell id="71" value="" style="endArrow=classic;html=1;fontSize=10;entryX=0.5;entryY=0;entryDx=0;entryDy=0;strokeColor=#000000;exitX=0.625;exitY=1.014;exitDx=0;exitDy=0;exitPerimeter=0;" parent="1" source="8" target="175" edge="1">
                    <mxGeometry width="50" height="50" relative="1" as="geometry">
                        <mxPoint x="112.5" y="620" as="sourcePoint"/>
                        <mxPoint x="207.00000000000045" y="658" as="targetPoint"/>
                    </mxGeometry>
                </mxCell>
                <mxCell id="72" value="API calls to&lt;br&gt;[REST/HTTPS]&amp;nbsp;" style="edgeLabel;html=1;align=center;verticalAlign=middle;resizable=0;points=[];fontSize=12;fontColor=#FFFFFF;labelBackgroundColor=#333333;" parent="71" vertex="1" connectable="0">
                    <mxGeometry x="-0.3001" relative="1" as="geometry">
                        <mxPoint x="1" y="14" as="offset"/>
                    </mxGeometry>
                </mxCell>
                <mxCell id="73" value="" style="endArrow=classic;html=1;fontSize=10;entryX=0.5;entryY=0;entryDx=0;entryDy=0;strokeColor=#000000;exitX=0.365;exitY=1.031;exitDx=0;exitDy=0;exitPerimeter=0;" parent="1" source="8" target="158" edge="1">
                    <mxGeometry width="50" height="50" relative="1" as="geometry">
                        <mxPoint x="49.5" y="460" as="sourcePoint"/>
                        <mxPoint x="-72.5" y="658" as="targetPoint"/>
                    </mxGeometry>
                </mxCell>
                <mxCell id="74" value="API calls to&lt;br&gt;[REST/HTTPS]&amp;nbsp;" style="edgeLabel;html=1;align=center;verticalAlign=middle;resizable=0;points=[];fontSize=12;fontColor=#FFFFFF;labelBackgroundColor=#333333;" parent="73" vertex="1" connectable="0">
                    <mxGeometry x="-0.3001" relative="1" as="geometry">
                        <mxPoint x="1" y="14" as="offset"/>
                    </mxGeometry>
                </mxCell>
                <mxCell id="75" value="" style="endArrow=classic;html=1;fontSize=10;entryX=0.5;entryY=0;entryDx=0;entryDy=0;strokeColor=#000000;exitX=0.89;exitY=0.997;exitDx=0;exitDy=0;exitPerimeter=0;" parent="1" source="8" target="70" edge="1">
                    <mxGeometry width="50" height="50" relative="1" as="geometry">
                        <mxPoint x="145" y="490" as="sourcePoint"/>
                        <mxPoint x="47.5" y="540" as="targetPoint"/>
                    </mxGeometry>
                </mxCell>
                <mxCell id="76" value="API calls to&lt;br&gt;[REST/HTTPS]&amp;nbsp;" style="edgeLabel;html=1;align=center;verticalAlign=middle;resizable=0;points=[];fontSize=12;fontColor=#FFFFFF;labelBackgroundColor=#333333;" parent="75" vertex="1" connectable="0">
                    <mxGeometry x="-0.3001" relative="1" as="geometry">
                        <mxPoint x="1" y="14" as="offset"/>
                    </mxGeometry>
                </mxCell>
                <mxCell id="192" value="&lt;font style=&quot;font-size: 12px;&quot;&gt;Master/slave + backup&lt;/font&gt;" style="rounded=0;whiteSpace=wrap;html=1;strokeColor=none;fontColor=#000000;labelBackgroundColor=none;fillColor=none;fontStyle=1;fontSize=14;verticalAlign=bottom;align=right;" vertex="1" parent="1">
                    <mxGeometry x="-101.25" y="1019" width="146.25" height="60" as="geometry"/>
                </mxCell>
                <mxCell id="193" value="&lt;font style=&quot;font-size: 12px;&quot;&gt;Master/slave + backup&lt;/font&gt;" style="rounded=0;whiteSpace=wrap;html=1;strokeColor=none;fontColor=#000000;labelBackgroundColor=none;fillColor=none;fontStyle=1;fontSize=14;verticalAlign=bottom;align=right;" vertex="1" parent="1">
                    <mxGeometry x="156.25" y="1022" width="146.25" height="60" as="geometry"/>
                </mxCell>
                <mxCell id="194" value="&lt;font style=&quot;font-size: 12px;&quot;&gt;Master/slave + backup&lt;/font&gt;" style="rounded=0;whiteSpace=wrap;html=1;strokeColor=none;fontColor=#000000;labelBackgroundColor=none;fillColor=none;fontStyle=1;fontSize=14;verticalAlign=bottom;align=right;" vertex="1" parent="1">
                    <mxGeometry x="456.25" y="1022" width="146.25" height="60" as="geometry"/>
                </mxCell>
                <mxCell id="196" value="&lt;font style=&quot;font-size: 12px;&quot;&gt;Master/slave + backup&lt;/font&gt;" style="rounded=0;whiteSpace=wrap;html=1;strokeColor=none;fontColor=#000000;labelBackgroundColor=none;fillColor=none;fontStyle=1;fontSize=14;verticalAlign=bottom;align=right;" vertex="1" parent="1">
                    <mxGeometry x="713.75" y="1019" width="146.25" height="60" as="geometry"/>
                </mxCell>
                <mxCell id="197" value="&lt;font style=&quot;font-size: 12px;&quot;&gt;Master/slave + backup&lt;/font&gt;" style="rounded=0;whiteSpace=wrap;html=1;strokeColor=none;fontColor=#000000;labelBackgroundColor=none;fillColor=none;fontStyle=1;fontSize=14;verticalAlign=bottom;align=right;" vertex="1" parent="1">
                    <mxGeometry x="1015.75" y="1019" width="146.25" height="60" as="geometry"/>
                </mxCell>
                <mxCell id="207" value="&lt;font style=&quot;font-size: 16px;&quot;&gt;x2&lt;/font&gt;" style="rounded=0;whiteSpace=wrap;html=1;strokeColor=none;fontColor=#000000;labelBackgroundColor=none;fillColor=none;fontStyle=1;fontSize=14;verticalAlign=bottom;align=right;" vertex="1" parent="1">
                    <mxGeometry x="-620" y="790" width="75" height="60" as="geometry"/>
                </mxCell>
                <mxCell id="208" value="&lt;font style=&quot;font-size: 16px;&quot;&gt;x2&lt;/font&gt;" style="rounded=0;whiteSpace=wrap;html=1;strokeColor=none;fontColor=#000000;labelBackgroundColor=none;fillColor=none;fontStyle=1;fontSize=14;verticalAlign=bottom;align=right;" vertex="1" parent="1">
                    <mxGeometry x="-300" y="790" width="67.5" height="60" as="geometry"/>
                </mxCell>
                <mxCell id="209" value="&lt;font style=&quot;font-size: 16px;&quot;&gt;x2&lt;/font&gt;" style="rounded=0;whiteSpace=wrap;html=1;strokeColor=none;fontColor=#000000;labelBackgroundColor=none;fillColor=none;fontStyle=1;fontSize=14;verticalAlign=bottom;align=right;" vertex="1" parent="1">
                    <mxGeometry x="90" y="790" width="82.5" height="60" as="geometry"/>
                </mxCell>
                <mxCell id="210" value="&lt;font style=&quot;font-size: 16px;&quot;&gt;x4&lt;/font&gt;" style="rounded=0;whiteSpace=wrap;html=1;strokeColor=none;fontColor=#000000;labelBackgroundColor=none;fillColor=none;fontStyle=1;fontSize=14;verticalAlign=bottom;align=right;" vertex="1" parent="1">
                    <mxGeometry x="680" y="790" width="50" height="60" as="geometry"/>
                </mxCell>
                <mxCell id="211" value="&lt;font style=&quot;font-size: 16px;&quot;&gt;x2&lt;/font&gt;" style="rounded=0;whiteSpace=wrap;html=1;strokeColor=none;fontColor=#000000;labelBackgroundColor=none;fillColor=none;fontStyle=1;fontSize=14;verticalAlign=bottom;align=right;" vertex="1" parent="1">
                    <mxGeometry x="1080" y="790" width="65" height="60" as="geometry"/>
                </mxCell>
            </root>
        </mxGraphModel>
    </diagram>
</mxfile>